<mxfile host="app.diagrams.net" modified="2024-07-02T05:36:02.826Z" agent="Mozilla/5.0 (Windows NT 10.0; Win64; x64; rv:127.0) Gecko/20100101 Firefox/127.0" etag="uwsllVdyqxzF9-24jimt" version="24.6.4" type="github">
  <diagram name="Страница — 1" id="gjajxChaPbByj-a_MBBo">
    <mxGraphModel dx="950" dy="492" grid="1" gridSize="10" guides="1" tooltips="1" connect="1" arrows="1" fold="1" page="1" pageScale="1" pageWidth="827" pageHeight="1169" math="0" shadow="0">
      <root>
        <mxCell id="0" />
        <mxCell id="1" parent="0" />
        <mxCell id="Evka37wHVcQ0AsjKDG4v-74" value="Фото" style="rounded=1;whiteSpace=wrap;html=1;strokeColor=#666666;fillColor=#E6E6E6;aspect=fixed;" vertex="1" parent="1">
          <mxGeometry x="51" y="292" width="43" height="45" as="geometry" />
        </mxCell>
        <mxCell id="Evka37wHVcQ0AsjKDG4v-1" value="" style="rounded=1;whiteSpace=wrap;html=1;" vertex="1" parent="1">
          <mxGeometry x="40" y="80" width="140" height="280" as="geometry" />
        </mxCell>
        <mxCell id="Evka37wHVcQ0AsjKDG4v-2" value="&lt;font style=&quot;font-size: 14px;&quot;&gt;Заказ еды в мобильном приложении ресторана авторизованным пользователем&lt;/font&gt;" style="text;html=1;align=center;verticalAlign=middle;whiteSpace=wrap;rounded=0;" vertex="1" parent="1">
          <mxGeometry x="40" y="10" width="530" height="40" as="geometry" />
        </mxCell>
        <mxCell id="Evka37wHVcQ0AsjKDG4v-3" value="Главная страница" style="text;html=1;align=center;verticalAlign=middle;whiteSpace=wrap;rounded=0;" vertex="1" parent="1">
          <mxGeometry x="40" y="60" width="110" height="20" as="geometry" />
        </mxCell>
        <mxCell id="Evka37wHVcQ0AsjKDG4v-4" value="Логотип" style="rounded=1;whiteSpace=wrap;html=1;fillColor=#E6E6E6;gradientColor=none;strokeColor=#666666;" vertex="1" parent="1">
          <mxGeometry x="45" y="100" width="50" height="20" as="geometry" />
        </mxCell>
        <mxCell id="Evka37wHVcQ0AsjKDG4v-10" value="" style="whiteSpace=wrap;html=1;aspect=fixed;rounded=1;fillColor=#999999;strokeColor=#999999;" vertex="1" parent="1">
          <mxGeometry x="77" y="344" width="10" height="10" as="geometry" />
        </mxCell>
        <mxCell id="Evka37wHVcQ0AsjKDG4v-11" value="" style="ellipse;whiteSpace=wrap;html=1;aspect=fixed;fillColor=#999999;strokeColor=#999999;" vertex="1" parent="1">
          <mxGeometry x="104.5" y="344" width="10" height="10" as="geometry" />
        </mxCell>
        <mxCell id="Evka37wHVcQ0AsjKDG4v-12" value="" style="triangle;whiteSpace=wrap;html=1;direction=west;fillColor=#999999;strokeColor=#999999;rounded=1;" vertex="1" parent="1">
          <mxGeometry x="130" y="344" width="10" height="10" as="geometry" />
        </mxCell>
        <mxCell id="Evka37wHVcQ0AsjKDG4v-13" value="" style="rounded=0;whiteSpace=wrap;html=1;strokeColor=#000000;" vertex="1" parent="1">
          <mxGeometry x="45" y="308" width="130" height="27" as="geometry" />
        </mxCell>
        <mxCell id="Evka37wHVcQ0AsjKDG4v-14" value="" style="rounded=0;whiteSpace=wrap;html=1;" vertex="1" parent="1">
          <mxGeometry x="45" y="127" width="130" height="75" as="geometry" />
        </mxCell>
        <mxCell id="Evka37wHVcQ0AsjKDG4v-15" value="" style="ellipse;whiteSpace=wrap;html=1;aspect=fixed;fillColor=#000000;" vertex="1" parent="1">
          <mxGeometry x="105" y="83.5" width="10" height="10" as="geometry" />
        </mxCell>
        <mxCell id="Evka37wHVcQ0AsjKDG4v-18" value="" style="group" vertex="1" connectable="0" parent="1">
          <mxGeometry x="152.5" y="100" width="20" height="20" as="geometry" />
        </mxCell>
        <mxCell id="Evka37wHVcQ0AsjKDG4v-5" value="" style="ellipse;whiteSpace=wrap;html=1;aspect=fixed;" vertex="1" parent="Evka37wHVcQ0AsjKDG4v-18">
          <mxGeometry width="20" height="20" as="geometry" />
        </mxCell>
        <mxCell id="Evka37wHVcQ0AsjKDG4v-6" value="" style="ellipse;whiteSpace=wrap;html=1;aspect=fixed;fillColor=#000000;" vertex="1" parent="Evka37wHVcQ0AsjKDG4v-18">
          <mxGeometry x="7.5" y="4.5" width="5" height="5" as="geometry" />
        </mxCell>
        <mxCell id="Evka37wHVcQ0AsjKDG4v-7" value="" style="shape=or;whiteSpace=wrap;html=1;direction=north;fillColor=#000000;" vertex="1" parent="Evka37wHVcQ0AsjKDG4v-18">
          <mxGeometry x="5" y="10.5" width="10" height="5" as="geometry" />
        </mxCell>
        <mxCell id="Evka37wHVcQ0AsjKDG4v-22" value="&lt;font style=&quot;font-size: 9px;&quot;&gt;Новинки&lt;/font&gt; &lt;font style=&quot;font-size: 9px;&quot;&gt;меню&lt;/font&gt;" style="text;html=1;align=left;verticalAlign=middle;whiteSpace=wrap;rounded=0;" vertex="1" parent="1">
          <mxGeometry x="45" y="120" width="130" height="21" as="geometry" />
        </mxCell>
        <mxCell id="Evka37wHVcQ0AsjKDG4v-23" value="Фото" style="rounded=1;whiteSpace=wrap;html=1;strokeColor=#666666;fillColor=#E6E6E6;" vertex="1" parent="1">
          <mxGeometry x="49" y="142" width="38" height="55" as="geometry" />
        </mxCell>
        <mxCell id="Evka37wHVcQ0AsjKDG4v-24" value="Фото" style="rounded=1;whiteSpace=wrap;html=1;strokeColor=#666666;fillColor=#E6E6E6;" vertex="1" parent="1">
          <mxGeometry x="91" y="142" width="38" height="55" as="geometry" />
        </mxCell>
        <mxCell id="Evka37wHVcQ0AsjKDG4v-25" value="Фото" style="rounded=1;whiteSpace=wrap;html=1;strokeColor=#666666;fillColor=#E6E6E6;" vertex="1" parent="1">
          <mxGeometry x="132.5" y="142" width="38" height="55" as="geometry" />
        </mxCell>
        <mxCell id="Evka37wHVcQ0AsjKDG4v-26" value="" style="whiteSpace=wrap;html=1;aspect=fixed;" vertex="1" parent="1">
          <mxGeometry x="52" y="311.5" width="20" height="20" as="geometry" />
        </mxCell>
        <mxCell id="Evka37wHVcQ0AsjKDG4v-31" value="" style="rounded=0;whiteSpace=wrap;html=1;" vertex="1" parent="1">
          <mxGeometry x="45" y="210" width="130" height="90" as="geometry" />
        </mxCell>
        <mxCell id="Evka37wHVcQ0AsjKDG4v-32" value="&lt;div align=&quot;left&quot;&gt;&lt;font style=&quot;font-size: 9px;&quot;&gt;Каталог блюд&lt;/font&gt;&lt;/div&gt;" style="text;html=1;align=left;verticalAlign=middle;whiteSpace=wrap;rounded=0;" vertex="1" parent="1">
          <mxGeometry x="46" y="209" width="75" height="15" as="geometry" />
        </mxCell>
        <mxCell id="Evka37wHVcQ0AsjKDG4v-40" value="" style="endArrow=none;html=1;rounded=0;" edge="1" parent="1">
          <mxGeometry width="50" height="50" relative="1" as="geometry">
            <mxPoint x="172.5" y="380" as="sourcePoint" />
            <mxPoint x="50" y="380" as="targetPoint" />
          </mxGeometry>
        </mxCell>
        <mxCell id="Evka37wHVcQ0AsjKDG4v-42" value="Фото" style="rounded=1;whiteSpace=wrap;html=1;strokeColor=#666666;fillColor=#E6E6E6;aspect=fixed;" vertex="1" parent="1">
          <mxGeometry x="50.5" y="229" width="43" height="45" as="geometry" />
        </mxCell>
        <mxCell id="Evka37wHVcQ0AsjKDG4v-43" value="" style="endArrow=none;html=1;rounded=0;strokeColor=#999999;" edge="1" parent="1">
          <mxGeometry width="50" height="50" relative="1" as="geometry">
            <mxPoint x="172" y="285" as="sourcePoint" />
            <mxPoint x="49.5" y="285" as="targetPoint" />
          </mxGeometry>
        </mxCell>
        <mxCell id="Evka37wHVcQ0AsjKDG4v-44" value="&lt;div align=&quot;center&quot;&gt;&lt;font style=&quot;font-size: 10px;&quot;&gt;Название&lt;/font&gt;&lt;/div&gt;" style="rounded=1;whiteSpace=wrap;html=1;align=center;" vertex="1" parent="1">
          <mxGeometry x="100" y="229" width="70.5" height="20" as="geometry" />
        </mxCell>
        <mxCell id="Evka37wHVcQ0AsjKDG4v-45" value="&lt;div align=&quot;center&quot;&gt;&lt;font style=&quot;font-size: 10px;&quot;&gt;Цена&lt;/font&gt;&lt;/div&gt;" style="rounded=1;whiteSpace=wrap;html=1;align=center;fillColor=#CCCCCC;strokeColor=#CCCCCC;" vertex="1" parent="1">
          <mxGeometry x="140" y="252" width="30.5" height="20" as="geometry" />
        </mxCell>
        <mxCell id="Evka37wHVcQ0AsjKDG4v-52" value="&lt;font style=&quot;font-size: 4px;&quot;&gt;Меню&lt;/font&gt;" style="text;html=1;align=center;verticalAlign=middle;whiteSpace=wrap;rounded=0;" vertex="1" parent="1">
          <mxGeometry x="42" y="320" width="40" height="10" as="geometry" />
        </mxCell>
        <mxCell id="Evka37wHVcQ0AsjKDG4v-65" value="" style="group" vertex="1" connectable="0" parent="1">
          <mxGeometry x="57" y="314" width="10" height="10" as="geometry" />
        </mxCell>
        <mxCell id="Evka37wHVcQ0AsjKDG4v-56" value="" style="rounded=0;whiteSpace=wrap;html=1;" vertex="1" parent="Evka37wHVcQ0AsjKDG4v-65">
          <mxGeometry width="10" height="10" as="geometry" />
        </mxCell>
        <mxCell id="Evka37wHVcQ0AsjKDG4v-57" value="" style="endArrow=none;html=1;rounded=0;" edge="1" parent="Evka37wHVcQ0AsjKDG4v-65">
          <mxGeometry width="50" height="50" relative="1" as="geometry">
            <mxPoint x="1.6666666666666665" y="1.818181818181818" as="sourcePoint" />
            <mxPoint x="8.333333333333332" y="1.818181818181818" as="targetPoint" />
          </mxGeometry>
        </mxCell>
        <mxCell id="Evka37wHVcQ0AsjKDG4v-58" value="" style="endArrow=none;html=1;rounded=0;" edge="1" parent="Evka37wHVcQ0AsjKDG4v-65">
          <mxGeometry width="50" height="50" relative="1" as="geometry">
            <mxPoint x="1.6666666666666665" y="3.4848484848484853" as="sourcePoint" />
            <mxPoint x="8.333333333333332" y="3.4848484848484853" as="targetPoint" />
          </mxGeometry>
        </mxCell>
        <mxCell id="Evka37wHVcQ0AsjKDG4v-59" value="" style="endArrow=none;html=1;rounded=0;" edge="1" parent="Evka37wHVcQ0AsjKDG4v-65">
          <mxGeometry width="50" height="50" relative="1" as="geometry">
            <mxPoint x="1.6666666666666665" y="5.087878787878786" as="sourcePoint" />
            <mxPoint x="8.333333333333332" y="5.087878787878786" as="targetPoint" />
          </mxGeometry>
        </mxCell>
        <mxCell id="Evka37wHVcQ0AsjKDG4v-60" value="" style="endArrow=none;html=1;rounded=0;" edge="1" parent="Evka37wHVcQ0AsjKDG4v-65">
          <mxGeometry width="50" height="50" relative="1" as="geometry">
            <mxPoint x="1.6666666666666665" y="6.754545454545452" as="sourcePoint" />
            <mxPoint x="8.333333333333332" y="6.754545454545452" as="targetPoint" />
          </mxGeometry>
        </mxCell>
        <mxCell id="Evka37wHVcQ0AsjKDG4v-61" value="" style="endArrow=none;html=1;rounded=0;" edge="1" parent="Evka37wHVcQ0AsjKDG4v-65">
          <mxGeometry width="50" height="50" relative="1" as="geometry">
            <mxPoint x="1.6666666666666665" y="8.348484848484844" as="sourcePoint" />
            <mxPoint x="8.333333333333332" y="8.348484848484844" as="targetPoint" />
          </mxGeometry>
        </mxCell>
        <mxCell id="Evka37wHVcQ0AsjKDG4v-86" value="" style="group" vertex="1" connectable="0" parent="1">
          <mxGeometry x="77" y="311.5" width="35" height="20" as="geometry" />
        </mxCell>
        <mxCell id="Evka37wHVcQ0AsjKDG4v-27" value="" style="whiteSpace=wrap;html=1;aspect=fixed;fontColor=#B3B3B3;strokeColor=#B3B3B3;" vertex="1" parent="Evka37wHVcQ0AsjKDG4v-86">
          <mxGeometry x="8" width="20" height="20" as="geometry" />
        </mxCell>
        <mxCell id="Evka37wHVcQ0AsjKDG4v-51" value="&lt;font style=&quot;font-size: 4px;&quot;&gt;&amp;nbsp;Поиск&lt;/font&gt;" style="text;html=1;align=center;verticalAlign=middle;whiteSpace=wrap;rounded=0;fontColor=#B3B3B3;" vertex="1" parent="Evka37wHVcQ0AsjKDG4v-86">
          <mxGeometry y="13.5" width="35" as="geometry" />
        </mxCell>
        <mxCell id="Evka37wHVcQ0AsjKDG4v-46" value="" style="ellipse;whiteSpace=wrap;html=1;aspect=fixed;strokeColor=#B3B3B3;" vertex="1" parent="Evka37wHVcQ0AsjKDG4v-86">
          <mxGeometry x="13" y="3.5" width="5.8965517241379315" height="5.8965517241379315" as="geometry" />
        </mxCell>
        <mxCell id="Evka37wHVcQ0AsjKDG4v-48" value="" style="endArrow=none;html=1;rounded=0;entryX=1;entryY=1;entryDx=0;entryDy=0;strokeColor=#B3B3B3;" edge="1" parent="Evka37wHVcQ0AsjKDG4v-86" target="Evka37wHVcQ0AsjKDG4v-46">
          <mxGeometry width="50" height="50" relative="1" as="geometry">
            <mxPoint x="23" y="12.5" as="sourcePoint" />
            <mxPoint x="19.66666666666667" y="9.396551724137908" as="targetPoint" />
          </mxGeometry>
        </mxCell>
        <mxCell id="Evka37wHVcQ0AsjKDG4v-87" value="" style="group" vertex="1" connectable="0" parent="1">
          <mxGeometry x="107" y="311.5" width="40" height="20" as="geometry" />
        </mxCell>
        <mxCell id="Evka37wHVcQ0AsjKDG4v-35" value="" style="whiteSpace=wrap;html=1;aspect=fixed;fontColor=#B3B3B3;strokeColor=#B3B3B3;" vertex="1" parent="Evka37wHVcQ0AsjKDG4v-87">
          <mxGeometry x="10" width="20" height="20" as="geometry" />
        </mxCell>
        <mxCell id="Evka37wHVcQ0AsjKDG4v-53" value="&lt;font style=&quot;font-size: 4px;&quot;&gt;Акции&lt;/font&gt;" style="text;html=1;align=center;verticalAlign=middle;whiteSpace=wrap;rounded=0;fontColor=#B3B3B3;" vertex="1" parent="Evka37wHVcQ0AsjKDG4v-87">
          <mxGeometry y="8.5" width="40" height="10" as="geometry" />
        </mxCell>
        <mxCell id="Evka37wHVcQ0AsjKDG4v-66" value="" style="endArrow=none;html=1;rounded=0;strokeColor=#B3B3B3;" edge="1" parent="Evka37wHVcQ0AsjKDG4v-87">
          <mxGeometry width="50" height="50" relative="1" as="geometry">
            <mxPoint x="25" y="2.5" as="sourcePoint" />
            <mxPoint x="15" y="12.5" as="targetPoint" />
          </mxGeometry>
        </mxCell>
        <mxCell id="Evka37wHVcQ0AsjKDG4v-68" value="" style="ellipse;whiteSpace=wrap;html=1;aspect=fixed;strokeColor=#B3B3B3;" vertex="1" parent="Evka37wHVcQ0AsjKDG4v-87">
          <mxGeometry x="15" y="2.5" width="4" height="4" as="geometry" />
        </mxCell>
        <mxCell id="Evka37wHVcQ0AsjKDG4v-69" value="" style="ellipse;whiteSpace=wrap;html=1;aspect=fixed;strokeColor=#B3B3B3;" vertex="1" parent="Evka37wHVcQ0AsjKDG4v-87">
          <mxGeometry x="21" y="8.5" width="4" height="4" as="geometry" />
        </mxCell>
        <mxCell id="Evka37wHVcQ0AsjKDG4v-88" value="" style="group" vertex="1" connectable="0" parent="1">
          <mxGeometry x="138" y="311.5" width="40" height="20" as="geometry" />
        </mxCell>
        <mxCell id="Evka37wHVcQ0AsjKDG4v-29" value="" style="whiteSpace=wrap;html=1;aspect=fixed;fontColor=#B3B3B3;strokeColor=#B3B3B3;" vertex="1" parent="Evka37wHVcQ0AsjKDG4v-88">
          <mxGeometry x="9.5" width="20" height="20" as="geometry" />
        </mxCell>
        <mxCell id="Evka37wHVcQ0AsjKDG4v-54" value="&lt;font style=&quot;font-size: 4px;&quot;&gt;Корзина&lt;/font&gt;" style="text;html=1;align=center;verticalAlign=middle;whiteSpace=wrap;rounded=0;fontColor=#B3B3B3;" vertex="1" parent="Evka37wHVcQ0AsjKDG4v-88">
          <mxGeometry y="8.5" width="40" height="10" as="geometry" />
        </mxCell>
        <mxCell id="Evka37wHVcQ0AsjKDG4v-76" value="" style="endArrow=none;html=1;rounded=0;strokeColor=#B3B3B3;" edge="1" parent="Evka37wHVcQ0AsjKDG4v-88">
          <mxGeometry width="50" height="50" relative="1" as="geometry">
            <mxPoint x="17.5" y="13.5" as="sourcePoint" />
            <mxPoint x="22.5" y="13.5" as="targetPoint" />
          </mxGeometry>
        </mxCell>
        <mxCell id="Evka37wHVcQ0AsjKDG4v-77" value="" style="endArrow=none;html=1;rounded=0;strokeColor=#B3B3B3;" edge="1" parent="Evka37wHVcQ0AsjKDG4v-88">
          <mxGeometry width="50" height="50" relative="1" as="geometry">
            <mxPoint x="15" y="8.26190476190476" as="sourcePoint" />
            <mxPoint x="17.5" y="13.5" as="targetPoint" />
          </mxGeometry>
        </mxCell>
        <mxCell id="Evka37wHVcQ0AsjKDG4v-79" value="" style="endArrow=none;html=1;rounded=0;strokeColor=#B3B3B3;" edge="1" parent="Evka37wHVcQ0AsjKDG4v-88">
          <mxGeometry width="50" height="50" relative="1" as="geometry">
            <mxPoint x="22.5" y="13.5" as="sourcePoint" />
            <mxPoint x="25" y="8.26190476190476" as="targetPoint" />
          </mxGeometry>
        </mxCell>
        <mxCell id="Evka37wHVcQ0AsjKDG4v-80" value="" style="endArrow=none;html=1;rounded=0;strokeColor=#B3B3B3;" edge="1" parent="Evka37wHVcQ0AsjKDG4v-88">
          <mxGeometry width="50" height="50" relative="1" as="geometry">
            <mxPoint x="15" y="8.26190476190476" as="sourcePoint" />
            <mxPoint x="25" y="8.26190476190476" as="targetPoint" />
          </mxGeometry>
        </mxCell>
        <mxCell id="Evka37wHVcQ0AsjKDG4v-81" value="" style="shape=or;whiteSpace=wrap;html=1;direction=north;strokeColor=#B3B3B3;" vertex="1" parent="Evka37wHVcQ0AsjKDG4v-88">
          <mxGeometry x="17.5" y="2.5" width="5" height="5.761904761904762" as="geometry" />
        </mxCell>
      </root>
    </mxGraphModel>
  </diagram>
</mxfile>
